<svg xmlns="http://www.w3.org/2000/svg" version="1.1" xmlns:xlink="http://www.w3.org/1999/xlink" xmlns:svgjs="http://svgjs.dev/svgjs" viewBox="0 0 800 800"><g stroke-width="5" stroke="hsl(230, 55%, 40%)" fill="none"><path d="M1119.6385692430322 102.5103151952544C1180.26798340169 409.3294357311197 795.0420182306029 1049.7567073455086 495.58629131075395 1139.979576965848C196.13056439090485 1230.2024465861873 -257.1195058135825 842.3992099087498 -317.74891997224034 535.5800893728847C-378.3783341308982 228.7609688370194 -94.8906235706554 -242.52933198596327 204.5651033491937 -332.75220160630266C504.02083026904256 -422.97507122664206 1059.0091550843742 -204.30880534061077 1119.6385692430322 102.5103151952544C1180.26798340169 409.3294357311197 795.0420182306029 1049.7567073455086 495.58629131075395 1139.979576965848 "></path><path d="M1086.9278222879154 116.03260411304836C1144.8013539848162 408.90540098819247 777.0856599578697 1020.2223420746548 491.24155698892264 1106.3441721667969C205.39745401997595 1192.466002258939 -227.25034026612565 822.2901854304755 -285.1238719630263 529.4173885553316C-342.997403659927 236.54459168018764 -72.39549812514974 -213.32342274175045 213.44860484379706 -299.4452528338926C499.29270781274386 -385.56708292603474 1029.0542905910147 -176.84019276209574 1086.9278222879154 116.03260411304836C1144.8013539848162 408.90540098819247 777.0856599578697 1020.2223420746548 491.24155698892264 1106.3441721667969 "></path><path d="M1054.2169532624866 129.55486251326397C1109.33460249763 408.4813357276869 759.1291796148239 990.6879462862223 486.8967005967793 1072.708736850167C214.66422157873455 1154.729527414112 -197.38129678898127 802.1811304346234 -252.4989460241248 523.2546572202004C-307.61659525926825 244.32818400577764 -49.90049474995658 -184.11754401511575 222.33198426808804 -266.13833457906065C494.56446328613265 -348.15912514300555 999.0993040273429 -149.3716107011589 1054.2169532624866 129.55486251326397C1109.33460249763 408.4813357276869 759.1291796148239 990.6879462862223 486.8967005967793 1072.708736850167 "></path><path d="M1021.5061147546355 143.07709039590156C1073.8678815280218 408.0572399496034 741.172729789356 961.1535199802122 482.5518747222136 1039.0732710159598C223.93101965507117 1116.9930220517074 -167.51222279425878 782.0720449211931 -219.87398956764508 517.0918953674914C-272.23575634103145 252.11174581378964 -27.40546085718529 -154.91169580605919 231.21539420995714 -232.83144684180684C489.83624927709934 -310.7511978775545 969.1443479812494 -121.90305915780016 1021.5061147546355 143.07709039590156C1073.8678815280218 408.0572399496034 741.172729789356 961.1535199802122 482.5518747222136 1039.0732710159598 "></path><path d="M988.7952457292067 156.59940983127353C1038.4011300408358 407.6332357242542 723.21624944631 931.6191852269362 478.20701833007 1005.4378967344865C233.19778721382977 1079.256608242037 -137.6431793171144 761.963050960497 -187.24906362874356 510.9292250675162C-236.8549479403727 259.8953991745359 -4.910457481992239 -125.70575604426824 240.098773634248 -199.52446755181865C485.10800475048813 -273.34317905936905 939.1893614175774 -94.43441606170705 988.7952457292067 156.59940983127353C1038.4011300408358 407.6332357242542 723.21624944631 931.6191852269362 478.20701833007 1005.4378967344865 "></path><path d="M956.0844072213558 170.1216071963329C1002.9344090712277 407.20910942859234 705.2597996208424 902.0847284033475 473.86219245550456 971.8024003827006C242.4645852901665 1041.5200723620537 -107.7741053223919 741.8539349294883 -154.62410717226385 504.766432697229C-201.47410902213585 267.67893046496954 17.58457641077905 -96.4999383527898 248.982183576117 -166.21761033214295C480.37979074145494 -235.9352823114961 909.2344053714837 -66.96589503592645 956.0844072213558 170.1216071963329C1002.9344090712277 407.20910942859234 705.2597996208424 902.0847284033475 473.86219245550456 971.8024003827006 "></path><path d="M923.3735076783487 183.64389611412685C967.4676270664634 406.7850746856651 687.3032887602185 872.5503631324937 469.51730554578273 938.1669955836494C251.73132233134697 1003.7836280348054 -77.90509236282566 721.7449104512143 -121.99921175094045 498.60373187967605C-166.09333113905524 275.4625533081378 40.07954926839409 -67.29402910857698 257.86553248282974 -132.9106615597329C475.6515156972654 -198.52729401088885 879.2793882902338 -39.49728245741147 923.3735076783487 183.64389611412685C967.4676270664634 406.7850746856651 687.3032887602185 872.5503631324937 469.51730554578273 938.1669955836494 "></path><path d="M890.662730205654 197.1660934791862C932.0009671320115 406.3609483900034 669.3468999699069 843.015906308905 465.1725407063734 904.5314992318638C260.99818144283995 966.0470921548224 -48.03595733294691 701.6357944202059 -89.37419425930449 492.4409395093886C-130.71243118566213 283.24608459857154 62.57464419632163 -38.088211417098535 266.749003459855 -99.6038043400572C470.92336272338855 -161.1193972630159 849.3244932792963 -12.028761431630869 890.662730205654 197.1660934791862C932.0009671320115 406.3609483900034 669.3468999699069 843.015906308905 465.1725407063734 904.5314992318638 "></path><path d="M857.951861180225 210.68835187940203C896.5342156448255 405.936883129498 651.3904196268609 813.481510520473 460.8276843142298 870.8960639152342C270.26494900159855 928.3106173099957 -18.166913855802534 681.5267394243535 -56.74926832040296 486.27820817425754C-95.33162278500345 291.02967692416155 85.06964757151468 -8.88233269046384 275.63238288414595 -66.29688608522525C466.19511819677723 -123.71143947998672 819.3695067156245 15.439820629305984 857.951861180225 210.68835187940203C896.5342156448255 405.936883129498 651.3904196268609 813.481510520473 460.8276843142298 870.8960639152342 "></path><path d="M825.240992154796 224.21061027961764C861.0674641576393 405.51281786899256 633.4339392838151 783.9471147320405 456.48282792208613 837.2606285986049C279.53171656035715 890.5741424651692 11.70212962134184 661.4176844285012 -24.124342381501435 480.1154768391265C-59.95081438434471 298.81326924975156 107.5646509467079 20.323546036170853 284.51576230843693 -32.98996783039331C461.4668736701658 -86.30348169695753 789.4145201519527 42.90840269024284 825.240992154796 224.21061027961764C861.0674641576393 405.51281786899256 633.4339392838151 783.9471147320405 456.48282792208613 837.2606285986049 "></path><path d="M792.5301536469451 237.73289919741148C825.6007431880312 405.0887831260652 615.4774894583473 754.4127494611866 452.13800204752056 803.6252237995536C288.7985146366939 852.8376981379206 41.571203616064395 641.3086599502273 8.500614074978273 473.9527760215735C-24.56997546610785 306.5968920929197 130.05968483947913 49.52945528038367 293.3991722503059 0.31698094201669846C456.7386596611327 -48.89549339635022 759.459564105859 70.37701526875776 792.5301536469451 237.73289919741148C825.6007431880312 405.0887831260652 615.4774894583473 754.4127494611866 452.13800204752056 803.6252237995536 "></path><path d="M759.8193151390942 251.2551575976272C790.1340222184231 404.66471786555985 597.5210396328796 724.8783536727542 447.7931761729551 769.989788482924C298.0653127130306 815.1012232930937 71.4402776107869 621.1996049543749 41.125570531457925 467.79004468644234C10.810863452129013 314.3804844185097 152.55471873225042 78.73533400701837 302.2825821921749 33.62389919684864C452.0104456520994 -11.487535613321029 729.5046080597654 97.84559732969461 759.8193151390942 251.2551575976272C790.1340222184231 404.66471786555985 597.5210396328796 724.8783536727542 447.7931761729551 769.989788482924 "></path><path d="M727.1084766312433 264.77744651542105C754.667301248815 404.2406831226325 579.564589807412 695.3439884019002 443.44835029838964 736.3543836838726C307.33211078936733 777.3647789658451 101.30935160550939 601.0905804761007 73.75052698793763 461.6273438688893C46.191702370365874 322.1641072616778 175.0497526250217 107.94124325123119 311.165992134044 66.9308479692587C447.2822316430663 25.920452687286286 699.5496520136714 125.31420990820959 727.1084766312433 264.77744651542105C754.667301248815 404.2406831226325 579.564589807412 695.3439884019002 443.44835029838964 736.3543836838726 "></path><path d="M694.3976381233924 278.29970491563677C719.200580279207 403.81661786212703 561.6081399819441 665.8095926134681 439.10352442382407 702.7189483672432C316.59890886570395 739.6283041210185 131.1784256002319 580.9815254802485 106.37548344441728 455.4646125337581C81.57254128860274 329.94769958726795 197.54478651779294 137.14712197786588 320.0494020759131 100.23776622409065C442.55401763403313 63.328410470315475 669.5946959675778 152.7827919691465 694.3976381233924 278.29970491563677C719.200580279207 403.81661786212703 561.6081399819441 665.8095926134681 439.10352442382407 702.7189483672432 "></path><path d="M661.6867690979634 291.8219633158525C683.7338287920207 403.3925526016217 543.6516596388983 636.2751968250359 434.7586680316804 669.0835130506138C325.86567642446255 701.8918292761917 161.04746907737626 560.8724704843962 139.00040938331887 449.30188119862714C116.95334968926142 337.73129191285796 220.0397898929861 166.35300070450057 328.9327815002039 133.5446844789226C437.8257731074218 100.73636825334466 639.639709403906 180.2513740300833 661.6867690979634 291.8219633158525C683.7338287920207 403.3925526016217 543.6516596388983 636.2751968250359 434.7586680316804 669.0835130506138 "></path><path d="M628.9759153313234 305.3441911984901C648.2670925636237 402.9684568235381 525.6951945546414 606.7407705190255 430.41382689832585 635.4480472164062C335.1324592420102 664.1553239137869 190.9165278133097 540.7633849709658 171.62535058100946 443.13911934591783C152.33417334870921 345.51485372086984 242.53480852696828 195.55884891355714 337.8161761832839 166.8515722161764C433.09754383959955 138.14429551879573 609.6847380990232 207.71992557344203 628.9759153313234 305.3441911984901C648.2670925636237 402.9684568235381 525.6951945546414 606.7407705190255 430.41382689832585 635.4480472164062 "></path><path d="M596.2650920822616 318.86644959870574C612.8003868528046 402.5443915630326 507.7387599879628 577.2063747305933 426.06901628254934 601.8126118997768C344.399272577136 626.4188490689603 220.78561706682126 520.6543299751136 204.25032229627817 436.97638801078676C187.71502752573514 353.29844604645984 265.02985767852863 224.76472764019184 346.6996013839421 200.15849047100835C428.3693450893554 175.55225330182492 579.7297973117186 235.18850763437888 596.2650920822616 318.86644959870574C612.8003868528046 402.5443915630326 507.7387599879628 577.2063747305933 426.06901628254934 601.8126118997768 "></path><path d="M563.5542230568326 332.38870799892146C577.3336353656184 402.12032630252725 489.7822796449169 547.6719789421611 421.72415989040576 568.1771765831472C353.6660401358946 588.6823742241335 250.65466054396563 500.5452749792613 236.87524823517975 430.8136566756556C223.09583592639387 361.08203837204985 287.5248610537218 253.97060636682653 355.58298080823295 233.4654087258403C423.6411005627441 212.9602110848541 549.7748107480467 262.65708969531573 563.5542230568326 332.38870799892146C577.3336353656184 402.12032630252725 489.7822796449169 547.6719789421611 421.72415989040576 568.1771765831472 "></path><path d="M530.8433692901926 345.9109663991372C541.8668991372213 401.6962610420218 471.8258145606601 518.1375831537289 417.3793187570511 534.5417412665179C362.9328229534422 550.9458993793069 280.52371927989907 480.43621998340905 269.50018943287034 424.6509253405245C258.4766595858417 368.8656306976399 310.019879687704 283.1764850934612 364.4663754913129 266.77232698067223C418.91287129492184 250.36816886788324 519.8198394431639 290.1256717562526 530.8433692901926 345.9109663991372C541.8668991372213 401.6962610420218 471.8258145606601 518.1375831537289 417.3793187570511 534.5417412665179 "></path><path d="M498.1325460411308 359.43324005814196C506.4001934264023 401.27221104030536 453.8693799939814 488.6032026240857 413.03450814127467 500.90632120867747C372.199636288568 513.2094397932692 310.39280853341063 460.32718024634585 302.1251611481391 418.48820926418244C293.8575137628676 376.649238282019 332.5149288392643 312.382379078885 373.34980069197104 300.07926049429324C414.1846725446777 287.7761419097015 489.8648986558593 317.5942690759785 498.1325460411308 359.43324005814196C506.4001934264023 401.27221104030536 453.8693799939814 488.6032026240857 413.03450814127467 500.90632120867747 "></path><path d="M465.4216770157018 372.95548319956856C470.9334419392161 400.8481305210109 435.9128996509355 459.06879157686444 408.68965174913103 467.27087063325894C381.46640384732655 475.47294968965343 340.261852010555 440.2181099917045 334.75008708704064 412.32546267026225C329.2383221635263 384.43281534881993 355.0099322144575 341.5882425467306 382.2331801162619 333.3861634903361C409.4564280180664 325.1840844339416 459.9099120921874 345.0628358781263 465.4216770157018 372.95548319956856C470.9334419392161 400.8481305210109 435.9128996509355 459.06879157686444 408.68965174913103 467.27087063325894 "></path><path d="M432.71085376663996 386.4777415997843C435.4667362283971 400.4240652605054 417.9564650842568 429.5343957884322 404.3448411333546 433.63543531662947C390.73321718245234 437.7364748448267 370.13094126406656 420.10905499585226 367.3750588023094 406.1627313351311C364.6191763405522 392.21640767441 377.5049813660178 370.7941212733653 391.11660531692 366.69308174516806C404.72822926782226 362.5920422169708 429.95497130488275 372.53141793906315 432.71085376663996 386.4777415997843C435.4667362283971 400.4240652605054 417.9564650842568 429.5343957884322 404.3448411333546 433.63543531662947 "></path></g></svg>